<?xml version="1.0" encoding="UTF-8" standalone="no"?>
<!-- Created with Inkscape (http://www.inkscape.org/) -->

<svg
   width="425.54855"
   height="426.29974"
   viewBox="0 0 112.59305 112.79181"
   version="1.1"
   id="svg1"
   xml:space="preserve"
   inkscape:version="1.3 (0e150ed6c4, 2023-07-21)"
   sodipodi:docname="Chaos Insurgency Logo.svg"
   inkscape:export-filename="Chaos Insurgency Logo.png"
   inkscape:export-xdpi="200"
   inkscape:export-ydpi="200"
   xmlns:inkscape="http://www.inkscape.org/namespaces/inkscape"
   xmlns:sodipodi="http://sodipodi.sourceforge.net/DTD/sodipodi-0.dtd"
   xmlns:xlink="http://www.w3.org/1999/xlink"
   xmlns="http://www.w3.org/2000/svg"
   xmlns:svg="http://www.w3.org/2000/svg"><sodipodi:namedview
     id="namedview1"
     pagecolor="#ffffff"
     bordercolor="#000000"
     borderopacity="0.25"
     inkscape:showpageshadow="2"
     inkscape:pageopacity="0.0"
     inkscape:pagecheckerboard="0"
     inkscape:deskcolor="#d1d1d1"
     inkscape:document-units="mm"
     inkscape:zoom="1.4142136"
     inkscape:cx="379.36278"
     inkscape:cy="187.02974"
     inkscape:window-width="2560"
     inkscape:window-height="1334"
     inkscape:window-x="-11"
     inkscape:window-y="-11"
     inkscape:window-maximized="1"
     inkscape:current-layer="g11" /><defs
     id="defs1"><clipPath
       clipPathUnits="userSpaceOnUse"
       id="clipPath17"><ellipse
         style="display:inline;opacity:1;fill:none;fill-opacity:1;stroke:#000000;stroke-width:1.32292;stroke-dasharray:none;stroke-opacity:1"
         id="circle18"
         cx="-625.6261"
         cy="1441.5782"
         inkscape:label="path11"
         transform="matrix(-0.02627775,-0.99965468,0.9996556,-0.0262426,0,0)"
         sodipodi:insensitive="true"
         rx="437.82407"
         ry="438.11697" /></clipPath></defs><g
     inkscape:label="Layer 1"
     inkscape:groupmode="layer"
     id="layer1"
     transform="translate(5.3156334,5.9646448)"
     style="display:inline"
     sodipodi:insensitive="true"><g
       id="g12"><g
         id="g11"
         style="display:inline"
         sodipodi:insensitive="true"><path
           style="fill:#000000;fill-opacity:1;stroke:#000000;stroke-width:0.264583;stroke-dasharray:none;stroke-opacity:1"
           d="m 94.792855,27.010032 c -3.446137,-7.837103 -6.840839,-8.724321 -6.840839,-8.724321 -6.275055,0.09858 -30.706615,26.912313 -30.706615,26.912313 0,0 29.420746,-26.764444 37.547454,-18.187992 z"
           id="path3" /><path
           style="fill:#000000;fill-opacity:1;stroke:#000000;stroke-width:0.264583;stroke-dasharray:none;stroke-opacity:1"
           d="m 98.920989,64.117028 c 3.305161,-7.879397 1.574921,-10.805733 1.574921,-10.805733 -4.467006,-4.178933 -41.145339,-1.745673 -41.145339,-1.745673 0,0 40.13681,0.979682 39.570418,12.551406 z"
           id="path4" /><path
           style="fill:#000000;fill-opacity:1;stroke:#000000;stroke-width:0.264583;stroke-dasharray:none;stroke-opacity:1"
           d="m 74.991631,94.065093 c 8.009841,-3.425398 8.894515,-6.747537 8.894515,-6.747537 C 83.73891,81.189897 56.06773,57.533876 56.06773,57.533876 c 0,0 27.657349,28.528987 18.923901,36.531217 z"
           id="path5" /><path
           style="fill:#000000;fill-opacity:1;stroke:#000000;stroke-width:0.264583;stroke-dasharray:none;stroke-opacity:1"
           d="m 38.038048,98.373028 c 8.000235,2.308912 10.852049,1.147882 10.816847,1.470532 4.146435,-4.436451 1.447368,-40.583739 1.447368,-40.583739 0,0 -0.68871,39.58346 -12.264215,39.113207 z"
           id="path6"
           sodipodi:nodetypes="cccc" /><path
           style="fill:#000000;fill-opacity:1;stroke:#000000;stroke-width:0.264583;stroke-dasharray:none;stroke-opacity:1"
           d="m 7.8292843,74.763999 c 3.3519497,7.837109 6.6538717,8.724329 6.6538717,8.724329 6.10355,-0.09857 29.86737,-26.912317 29.86737,-26.912317 0,0 -28.616645,26.764447 -36.5212417,18.187988 z"
           id="path7" /><path
           style="fill:#000000;fill-opacity:1;stroke:#000000;stroke-width:0.264583;stroke-dasharray:none;stroke-opacity:1"
           d="m 2.8967652,37.914507 c -3.27739296,7.879397 -1.561692,10.805734 -1.561692,10.805734 4.4294802,4.178933 40.7996868,1.745673 40.7996868,1.745673 0,0 -39.7996283,-0.979683 -39.2379948,-12.551407 z"
           id="path8" /><path
           style="fill:#000000;fill-opacity:1;stroke:#000000;stroke-width:0.264583;stroke-dasharray:none;stroke-opacity:1"
           d="m 26.494995,7.0837598 c -7.81216,3.4897932 -8.675,6.8743842 -8.675,6.8743842 0.143601,6.242851 27.13186,30.343578 27.13186,30.343578 0,0 -26.974768,-29.065298 -18.45686,-37.2179622 z"
           id="path9" /><path
           style="fill:#000000;fill-opacity:1;stroke:#000000;stroke-width:0.264583;stroke-dasharray:none;stroke-opacity:1"
           d="M 63.754469,2.7074565 C 55.754234,0.37635272 52.90242,1.5485409 52.937622,1.2227905 48.791187,5.7018818 51.490254,42.196589 51.490254,42.196589 c 0,0 0.68871,-39.9639057 12.264215,-39.4891325 z"
           id="path10"
           sodipodi:nodetypes="cccc" /></g><g
         id="g3"
         style="display:inline"><circle
           style="display:inline;fill:#fa0f14;fill-opacity:1;stroke:#000000;stroke-width:0.264583;stroke-opacity:1"
           id="path1"
           cx="50.721104"
           cy="50.749165"
           r="8.6011057"
           sodipodi:insensitive="true" /><circle
           style="display:inline;opacity:1;fill:none;fill-opacity:1;stroke:#000000;stroke-width:1.32292;stroke-dasharray:none;stroke-opacity:1"
           id="path11"
           cx="-51.740967"
           cy="49.654369"
           r="49.733814"
           inkscape:label="path11"
           transform="rotate(-91.50477)"
           sodipodi:insensitive="true" /></g></g><text
       xml:space="preserve"
       style="font-style:normal;font-variant:normal;font-weight:bold;font-stretch:normal;font-size:7.05556px;font-family:'Times New Roman';-inkscape-font-specification:'Times New Roman,  Bold';opacity:1;fill:#000000;fill-opacity:1;stroke-width:0.967101"
       id="text16"
       transform="matrix(1.0340179,0,0,1.0340179,-1.7342608,-1.7155633)"><textPath
         xlink:href="#path11"
         id="textPath16"
         style="stroke-width:0.967101"><tspan
           id="tspan16"
           style="stroke-width:0.967101">SHOULD INTERMITTENT VENGEANCE ARM AGAIN HIS RED RIGHT HAND TO PLAGUE US? </tspan></textPath></text></g></svg>
